<?xml version="1.0" standalone="no"?><!DOCTYPE svg PUBLIC "-//W3C//DTD SVG 1.1//EN" "http://www.w3.org/Graphics/SVG/1.1/DTD/svg11.dtd"><svg width="100%" height="100%" version="1.1" xmlns="http://www.w3.org/2000/svg"><path d="M0 0 L50 0 L50 50 L0 50 L0 0 " style="fill:#6c6b6b; " /><path d="M50 0 L100 0 L100 50 L50 50 L50 0 " style="fill:#00a2a0; " /><path d="M100 0 L150 0 L150 50 L100 50 L100 0 " style="fill:#00a2a0; " /><path d="M150 0 L200 0 L200 50 L150 50 L150 0 " style="fill:#6c6b6b; " /><path d="M200 0 L250 0 L250 50 L200 50 L200 0 " style="fill:#6c6b6b; " /><path d="M250 0 L300 0 L300 50 L250 50 L250 0 " style="fill:#7da3ac; " /><path d="M0 50 L50 50 L50 100 L0 100 L0 50 " style="fill:#7da3ac; " /><path d="M50 50 L100 50 L100 100 L50 100 L50 50 " style="fill:#7da3ac; " /><path d="M100 50 L150 50 L150 100 L100 100 L100 50 " style="fill:#6c6b6b; " /><path d="M150 50 L200 50 L200 100 L150 100 L150 50 " style="fill:#6c6b6b; " /><path d="M200 50 L250 50 L250 100 L200 100 L200 50 " style="fill:#6c6b6b; " /><path d="M250 50 L300 50 L300 100 L250 100 L250 50 " style="fill:#7da3ac; " /><path d="M0 100 L50 100 L50 150 L0 150 L0 100 " style="fill:rgba(0,0,0,0); " /><path d="M50 100 L100 100 L100 150 L50 150 L50 100 " style="fill:#444444; " /><path d="M100 100 L150 100 L150 150 L100 150 L100 100 " style="fill:rgba(0,0,0,0); " /><path d="M150 100 L200 100 L200 150 L150 150 L150 100 " style="fill:#9c89ba; " /><path d="M200 100 L250 100 L250 150 L200 150 L200 100 " style="fill:#4b727f; " /><path d="M250 100 L300 100 L300 150 L250 150 L250 100 " style="fill:#a5478e; " /><path d="M0 150 L50 150 L50 200 L0 200 L0 150 " style="fill:rgba(0,0,0,0); " /><path d="M50 150 L100 150 L100 200 L50 200 L50 150 " style="fill:rgba(0,0,0,0); " /><path d="M100 150 L150 150 L150 200 L100 200 L100 150 " style="fill:rgba(0,0,0,0); " /><path d="M150 150 L200 150 L200 200 L150 200 L150 150 " style="fill:rgba(0,0,0,0); " /><path d="M200 150 L250 150 L250 200 L200 200 L200 150 " style="fill:#00a2a0; " /><path d="M250 150 L300 150 L300 200 L250 200 L250 150 " style="fill:#9c89ba; " /><path d="M0 200 L50 200 L50 250 L0 250 L0 200 " style="fill:rgba(0,0,0,0); " /><path d="M50 200 L100 200 L100 250 L50 250 L50 200 " style="fill:rgba(0,0,0,0); " /><path d="M100 200 L150 200 L150 250 L100 250 L100 200 " style="fill:rgba(0,0,0,0); " /><path d="M150 200 L200 200 L200 250 L150 250 L150 200 " style="fill:rgba(0,0,0,0); " /><path d="M200 200 L250 200 L250 250 L200 250 L200 200 " style="fill:rgba(0,0,0,0); " /><path d="M250 200 L300 200 L300 250 L250 250 L250 200 " style="fill:#a5478e; " /></svg>